/* XPM */
static char *_eeaeaa6a0ce4a57f49a74a967db88afje7wnWytvc4Gpazy[] = {
/* columns rows colors chars-per-pixel */
"32 32 167 2 ",
"   c None",
".  c #160003",
"X  c #1A0004",
"o  c #1D0004",
"O  c #230006",
"+  c #2E0008",
"@  c #320009",
"#  c #390711",
"$  c #410715",
"%  c #420912",
"&  c #450913",
"*  c #4A0915",
"=  c #4B0A14",
"-  c #4E0A16",
";  c #4F071B",
":  c #500A16",
">  c #530B16",
",  c #54071E",
"<  c #5A0C18",
"1  c #5D0D1A",
"2  c #610E18",
"3  c #630F19",
"4  c #650F1A",
"5  c #620C1F",
"6  c #660E1C",
"7  c #6E0F1A",
"8  c #6F0F1D",
"9  c #6F111A",
"0  c #77131B",
"q  c #72121D",
"w  c #79111E",
"e  c #7C141C",
"r  c #7D141F",
"t  c #5F0724",
"y  c #600724",
"u  c #6E0D24",
"i  c #670728",
"p  c #780F26",
"a  c #74072A",
"s  c #7D072E",
"d  c #790E29",
"f  c #7C1523",
"g  c #7E1027",
"h  c #86151D",
"j  c #801327",
"k  c #811228",
"l  c #85122C",
"z  c #941721",
"x  c #93152F",
"c  c #96172C",
"v  c #94182B",
"b  c #98182D",
"n  c #860733",
"m  c #800737",
"M  c #8C0739",
"N  c #910739",
"B  c #9B0D3E",
"V  c #8C1432",
"C  c #8F1134",
"Z  c #9A1630",
"A  c #9D1637",
"S  c #A01C2D",
"D  c #B81D2E",
"F  c #A1073B",
"G  c #A01631",
"H  c #A11B30",
"J  c #AD1C35",
"K  c #A2153D",
"L  c #AC1D3A",
"P  c #AD1B3C",
"I  c #B01C31",
"U  c #B01E33",
"Y  c #B41F34",
"T  c #BD1E37",
"R  c #B61C3C",
"E  c #BA2232",
"W  c #B22038",
"Q  c #D21B3C",
"!  c #C12034",
"~  c #C72737",
"^  c #C32239",
"/  c #C9233B",
"(  c #E92E3F",
")  c #A91141",
"_  c #AE1543",
"`  c #B31B42",
"'  c #B41A44",
"]  c #BC1947",
"[  c #C31C43",
"{  c #CC2343",
"}  c #CD2443",
"|  c #CA214A",
" . c #C9244C",
".. c #DF2A44",
"X. c #D5274B",
"o. c #D1224D",
"O. c #D52A4D",
"+. c #DA2B48",
"@. c #DC2948",
"#. c #DA2B51",
"$. c #EF2E4A",
"%. c #E92C4F",
"&. c #FA2E45",
"*. c #E6314C",
"=. c #EF304D",
"-. c #F0364A",
";. c #F2334D",
":. c #FF3B4D",
">. c #E02C52",
",. c #E62F54",
"<. c #F02E54",
"1. c #FF2951",
"2. c #E93052",
"3. c #F23455",
"4. c #FF3156",
"5. c #FF3754",
"6. c #FF3757",
"7. c #FF3A59",
"8. c #FF3F5B",
"9. c #FF3C5D",
"0. c #FF3D5E",
"q. c #FF3E5F",
"w. c #FF3E66",
"e. c #FF4755",
"r. c #FF405C",
"t. c #FF475F",
"y. c #FF4A5D",
"u. c #FF4060",
"i. c #FF4362",
"p. c #FF4763",
"a. c #FF4464",
"s. c #FF4D6A",
"d. c #FF4D6F",
"f. c #FF4F6E",
"g. c #FF5765",
"h. c #FF536D",
"j. c #FF5A6A",
"k. c #FF4D70",
"l. c #FF5172",
"z. c #FF5D74",
"x. c #FF6567",
"c. c #FF6969",
"v. c #FF6172",
"b. c #FF6F77",
"n. c #FF6478",
"m. c #FF687D",
"M. c #FF6F7D",
"N. c #FF8F7E",
"B. c #FF957F",
"V. c #FF6683",
"C. c #FF6E80",
"Z. c #FF6C85",
"A. c #FF7389",
"S. c #FF7D8A",
"D. c #FF8382",
"F. c #FF858D",
"G. c #FF9C97",
"H. c #FF919E",
"J. c #FFA099",
"K. c #FFB79E",
"L. c #FFBA9C",
"P. c #FF9AA2",
"I. c #FFADA9",
"U. c #FFB9AD",
"Y. c #FFBBAD",
"T. c #FFD0A3",
"R. c #FFD2B4",
/* pixels */
"                                                                ",
"                                      + + @ +                   ",
"                                  @ @ K.F.o.P.@ @               ",
"                              @ @ H.S.n.o.P.T.P.I.@ @           ",
"                          @ @ H.Y.D.h._ m.s.s.h.A.Y.F.@         ",
"                      @ @ H.A.z.z.9.B ] O.y.9.N.s.h.u.@         ",
"                  @ @ H.J.Z.z.t.| B P.R.] ] O.2.9.2.n O         ",
"                @ G.Z.Z.9.<.| | B S.n.A.P.K.] ] O.n a.O         ",
"              @ Z.Z.<.<.<.| m M r.9.B.s.n.n.C.p.a a.M.O         ",
"            @ Z.v.<.8.| | m V.L.) 2.s.s.s.9.%.a a 9.k.O         ",
"          @ z.<.| | | m m l.d.V.N O.9.b.9.O.i 7.s | 9.O         ",
"        o #.| 1.t t t X.u.x.w.d.V.N O.9.O.i =.7.s | 9.O         ",
"      X 8 $ t t ..;.t @.<.<.<.4.c.d.N O.i =.3.g.s 6.9.O         ",
"      X 6 $ Z / -.*.t ` <.<.<.<.` [ m i L } 3.6.s | 9.O         ",
"      . r $ l J T ..t K | 8.| ` ; ; ; V P } +.6.s ' j.O         ",
"      . 1 $ l x J T / t ` ` ` ; ~ I ! , A &.} 3.6.s 9.O         ",
"      . q $ d Y x x G t K ; ; v H W ( , C P } +.6.s 9.O         ",
"      . 1 $ d x # # # ; ; j j k b H W ^ , A P :.6.s 9.O         ",
"      . # # # # 4 r w # - 5 S k k E H ^ , C P } 6.s 9.O         ",
"        . . & = : 2 4 w # # 5 k k k b H ( , A } $.s j.O         ",
"            . . % 2 : 2 z w # 5 5 k k b ^ , C &.$.s ,.O         ",
"                . . % : : 2 w # # 5 k k H ^ , A $.s >.O         ",
"                    . . = : 0 w w # f p k I , C { s  .O         ",
"                        . . = : 2 w # # u S I , A $.m O         ",
"                            . . = : h w # u c , C e.m O         ",
"                                . . : < w # u c , R F O         ",
"                                    . . 9 w # D , Q m O         ",
"                                        . . 7 # g t m O         ",
"                                            . . $ , F O         ",
"                                                . . y O         ",
"                                                    X O         ",
"                                                                "
};
