/* XPM */
static char *result[] = {
/* columns rows colors chars-per-pixel */
"32 32 167 2 ",
"   c #160003",
".  c #1A0004",
"X  c #1D0004",
"o  c #230006",
"O  c #2E0008",
"+  c #320009",
"@  c #390711",
"#  c #410715",
"$  c #420912",
"%  c #450913",
"&  c #4A0915",
"*  c #4B0A14",
"=  c #4E0A16",
"-  c #4F071B",
";  c #500A16",
":  c #530B16",
">  c #54071E",
",  c #5A0C18",
"<  c #5D0D1A",
"1  c #610E18",
"2  c #630F19",
"3  c #650F1A",
"4  c #620C1F",
"5  c #660E1C",
"6  c #6E0F1A",
"7  c #6F0F1D",
"8  c #6F111A",
"9  c #77131B",
"0  c #72121D",
"q  c #79111E",
"w  c #7C141C",
"e  c #7D141F",
"r  c #5F0724",
"t  c #600724",
"y  c #6E0D24",
"u  c #670728",
"i  c #780F26",
"p  c #74072A",
"a  c #7D072E",
"s  c #790E29",
"d  c #7C1523",
"f  c #7E1027",
"g  c #86151D",
"h  c #801327",
"j  c #811228",
"k  c #85122C",
"l  c #941721",
"z  c #93152F",
"x  c #96172C",
"c  c #94182B",
"v  c #98182D",
"b  c #860733",
"n  c #800737",
"m  c #8C0739",
"M  c #910739",
"N  c #9B0D3E",
"B  c #8C1432",
"V  c #8F1134",
"C  c #9A1630",
"Z  c #9D1637",
"A  c #A01C2D",
"S  c #B81D2E",
"D  c #A1073B",
"F  c #A01631",
"G  c #A11B30",
"H  c #AD1C35",
"J  c #A2153D",
"K  c #AC1D3A",
"L  c #AD1B3C",
"P  c #B01C31",
"I  c #B01E33",
"U  c #B41F34",
"Y  c #BD1E37",
"T  c #B61C3C",
"R  c #BA2232",
"E  c #B22038",
"W  c #D21B3C",
"Q  c #C12034",
"!  c #C72737",
"~  c #C32239",
"^  c #C9233B",
"/  c #E92E3F",
"(  c #A91141",
")  c #AE1543",
"_  c #B31B42",
"`  c #B41A44",
"'  c #BC1947",
"]  c #C31C43",
"[  c #CC2343",
"{  c #CD2443",
"}  c #CA214A",
"|  c #C9244C",
" . c #DF2A44",
".. c #D5274B",
"X. c #D1224D",
"o. c #D52A4D",
"O. c #DA2B48",
"+. c #DC2948",
"@. c #DA2B51",
"#. c #EF2E4A",
"$. c #E92C4F",
"%. c #FA2E45",
"&. c #E6314C",
"*. c #EF304D",
"=. c #F0364A",
"-. c #F2334D",
";. c #FF3B4D",
":. c #E02C52",
">. c #E62F54",
",. c #F02E54",
"<. c #FF2951",
"1. c #E93052",
"2. c #F23455",
"3. c #FF3156",
"4. c #FF3754",
"5. c #FF3757",
"6. c #FF3A59",
"7. c #FF3F5B",
"8. c #FF3C5D",
"9. c #FF3D5E",
"0. c #FF3E5F",
"q. c #FF3E66",
"w. c #FF4755",
"e. c #FF405C",
"r. c #FF475F",
"t. c #FF4A5D",
"y. c #FF4060",
"u. c #FF4362",
"i. c #FF4763",
"p. c #FF4464",
"a. c #FF4D6A",
"s. c #FF4D6F",
"d. c #FF4F6E",
"f. c #FF5765",
"g. c #FF536D",
"h. c #FF5A6A",
"j. c #FF4D70",
"k. c #FF5172",
"l. c #FF5D74",
"z. c #FF6567",
"x. c #FF6969",
"c. c #FF6172",
"v. c #FF6F77",
"b. c #FF6478",
"n. c #FF687D",
"m. c #FF6F7D",
"M. c #FF8F7E",
"N. c #FF957F",
"B. c #FF6683",
"V. c #FF6E80",
"C. c #FF6C85",
"Z. c #FF7389",
"A. c #FF7D8A",
"S. c #FF8382",
"D. c #FF858D",
"F. c #FF9C97",
"G. c #FF919E",
"H. c #FFA099",
"J. c #FFB79E",
"K. c #FFBA9C",
"L. c #FF9AA2",
"P. c #FFADA9",
"I. c #FFB9AD",
"U. c #FFBBAD",
"Y. c #FFD0A3",
"T. c #FFD2B4",
"R. c None",
/* pixels */
"R.R.R.R.R.R.R.R.R.R.R.R.R.R.R.R.R.R.R.R.R.R.R.R.R.R.R.R.R.R.R.R.",
"R.R.R.R.R.R.R.R.R.R.R.R.R.R.R.R.R.R.R.O O + O R.R.R.R.R.R.R.R.R.",
"R.R.R.R.R.R.R.R.R.R.R.R.R.R.R.R.R.+ + J.D.X.L.+ + R.R.R.R.R.R.R.",
"R.R.R.R.R.R.R.R.R.R.R.R.R.R.R.+ + G.A.b.X.L.Y.L.P.+ + R.R.R.R.R.",
"R.R.R.R.R.R.R.R.R.R.R.R.R.+ + G.U.S.g.) n.a.a.g.Z.I.D.+ R.R.R.R.",
"R.R.R.R.R.R.R.R.R.R.R.+ + G.Z.l.l.0.N ' o.t.0.M.a.g.u.+ R.R.R.R.",
"R.R.R.R.R.R.R.R.R.+ + G.H.C.l.r.} N L.T.' ' o.1.0.1.b o R.R.R.R.",
"R.R.R.R.R.R.R.R.+ F.C.C.8.,.} } N A.b.Z.L.J.' ' o.b p.o R.R.R.R.",
"R.R.R.R.R.R.R.+ C.C.,.,.,.} n m e.0.N.a.b.b.V.i.p p.m.o R.R.R.R.",
"R.R.R.R.R.R.+ C.c.,.7.} } n B.K.( 1.a.a.a.0.$.p p 8.j.o R.R.R.R.",
"R.R.R.R.R.+ l.,.} } } n n k.s.B.M o.0.v.0.o.u 6.a } 9.o R.R.R.R.",
"R.R.R.R.X @.} <.r r r ..y.z.q.s.B.M o.0.o.u *.6.a } 9.o R.R.R.R.",
"R.R.R.. 7 # r r  .-.r +.,.,.,.3.x.d.M o.u *.2.f.a 4.9.o R.R.R.R.",
"R.R.R.. 5 # C ^ =.&.r _ ,.,.,.,._ ] n u K { 2.5.a } 9.o R.R.R.R.",
"R.R.R.  e # k H Y  .r J } 7.} _ - - - B L { O.5.a ` h.o R.R.R.R.",
"R.R.R.  < # k z H Y ^ r _ _ _ - ! I Q > Z %.{ 2.5.a 9.o R.R.R.R.",
"R.R.R.  0 # s U z z F r J - - c G E / > V L { O.5.a 9.o R.R.R.R.",
"R.R.R.  < # s z @ @ @ - - h h j v G E ~ > Z L ;.5.a 9.o R.R.R.R.",
"R.R.R.  @ @ @ @ 3 w q @ = 4 A j j R G ~ > V L { 5.a 9.o R.R.R.R.",
"R.R.R.R.    % * : 1 3 q @ @ 4 j j j v G / > Z { #.a h.o R.R.R.R.",
"R.R.R.R.R.R.    $ 2 : 1 l q @ 4 4 j j v ~ > V %.#.a >.o R.R.R.R.",
"R.R.R.R.R.R.R.R.    $ ; : 1 q @ @ 4 j j G ~ > Z #.a :.o R.R.R.R.",
"R.R.R.R.R.R.R.R.R.R.    & ; 9 q q @ d i j P > V [ a | o R.R.R.R.",
"R.R.R.R.R.R.R.R.R.R.R.R.    & ; 1 q @ @ y A P > Z #.n o R.R.R.R.",
"R.R.R.R.R.R.R.R.R.R.R.R.R.R.    & ; g q @ y x > V w.n o R.R.R.R.",
"R.R.R.R.R.R.R.R.R.R.R.R.R.R.R.R.    ; , q @ y x > T D o R.R.R.R.",
"R.R.R.R.R.R.R.R.R.R.R.R.R.R.R.R.R.R.    8 q @ S > W n o R.R.R.R.",
"R.R.R.R.R.R.R.R.R.R.R.R.R.R.R.R.R.R.R.R.    6 @ f r n o R.R.R.R.",
"R.R.R.R.R.R.R.R.R.R.R.R.R.R.R.R.R.R.R.R.R.R.    # > D o R.R.R.R.",
"R.R.R.R.R.R.R.R.R.R.R.R.R.R.R.R.R.R.R.R.R.R.R.R.    t o R.R.R.R.",
"R.R.R.R.R.R.R.R.R.R.R.R.R.R.R.R.R.R.R.R.R.R.R.R.R.R.. o R.R.R.R.",
"R.R.R.R.R.R.R.R.R.R.R.R.R.R.R.R.R.R.R.R.R.R.R.R.R.R.R.R.R.R.R.R."
};
