/* XPM */
static char *result[] = {
/* columns rows colors chars-per-pixel */
"32 32 10 1 ",
"  c #692B2B",
". c #8A5744",
"X c #945552",
"o c #AB825C",
"O c #D68C6B",
"+ c gray60",
"@ c #F7BA84",
"# c #FFE1A5",
"$ c white",
"% c None",
/* pixels */
"%%%%%%%%%%           %%%%%%%%%%%",
"%%%%%%%%  ooooooooooo  %%%%%%%%%",
"%%%%%%% ooooooooooooooo %%%%%%%%",
"%%%%%% ooooooooooooooooo %%%%%%%",
"%%%%%% ooooooooooooooooo %%%%%%%",
"%%%%% oo..ooooooooooo..oo %%%%%%",
"%%%%% o.@@.ooooooooo.@@.o %%%%%%",
"%%%%% .O@@@.ooooooo.@@@O. %%%%%%",
"%%%%% OO@@@@#######@@@@OO %%%%%%",
"%%%%% OO@@@@#######@@@@OO %%%%%%",
"%%%%% OO@@@@@#####@@@@@OO %%%%%%",
"%%%%% OO@XXXX@@@@@XXXX@OO %%%%%%",
"%%%%XXOOX@@@@@@@@@@@@@XOOXX%%%%%",
"%%%%XOXOOOOOOO@@@OOOOOOOXOX%%%%%",
"%%%%X@XOOXXXXO@@@OXXXXOOX@X%%%%%",
"%%%%X@XOO+$X$X@@@X$X$+OOX@X%%%%%",
"%%%%XOXO@@@@@O@@@O@@@@@OXOX%%%%%",
"%%%%XOX@@###@O@#@O@###@@XOX%%%%%",
"%%%%XXO@@###@O@#@O@###@@OXX%%%%%",
"%%%%%XO@@@@@@@@#@@@@@@@@OX%%%%%%",
"%%%%%%XO@@@@@OXOXO@@@@@OX%%%%%%%",
"%%%%%%XOO@@@@@OOO@@@@@OOX%%%%%%%",
"%%%%%%XOOOO@@@###@@@OOOOX%%%%%%%",
"%%%%%%XOOOO@@@###@@@OOOOX%%%%%%%",
"%%%%%%XOOO@XXOOOOOXX@OOOX%%%%%%%",
"%%%%%%%XOO@@@@###@@@@OOX%%%%%%%%",
"%%%%%%%XOO@@@OXXXO@@@OOX%%%%%%%%",
"%%%%%%%%XO@@@@OOO@@@@OX%%%%%%%%%",
"%%%%%%%%%XO@@@@@@@@@OX%%%%%%%%%%",
"%%%%%%%%%%XO@@@@@@@OX%%%%%%%%%%%",
"%%%%%%%%%%%XXOOOOOXX%%%%%%%%%%%%",
"%%%%%%%%%%%%%XXXXX%%%%%%%%%%%%%%"
};
